<?xml version="1.0" encoding="UTF-8" standalone="no"?><!DOCTYPE svg PUBLIC "-//W3C//DTD SVG 1.1//EN" "http://www.w3.org/Graphics/SVG/1.1/DTD/svg11.dtd"><svg width="100%" height="100%" viewBox="0 0 1920 1920" version="1.1" xmlns="http://www.w3.org/2000/svg" xmlns:xlink="http://www.w3.org/1999/xlink" xml:space="preserve" xmlns:serif="http://www.serif.com/" style="fill-rule:evenodd;clip-rule:evenodd;stroke-linecap:round;stroke-linejoin:round;stroke-miterlimit:1.5;"><path d="M479.224,334.009c0,0 74.888,-128.558 139.791,-8.737c64.903,119.821 231.014,336.827 224.398,338.015c-15.729,2.823 -102.419,-16.747 -140.433,32.342c-38.4,49.588 -367.292,402.239 -367.292,402.239l688.971,3.744l287.071,-303.297c0,0 69.284,-69.09 91.453,-75.015c9.682,-2.588 43.346,-22.339 125.723,72.519c82.377,94.858 325.763,330.756 325.763,330.756c0,0 44.733,41.288 19.171,72.442c-25.562,31.153 -53.52,29.556 -53.52,29.556l0.799,365.055c0,0 -16.775,55.916 -43.136,47.928c-26.361,-7.988 -1677.887,4.251 -1677.887,4.251c0,0 -51.922,-3.994 -59.911,-33.949c-7.988,-29.955 11.57,-58.302 11.57,-58.302l167.522,-333.735c0,0 -120.406,-6.685 -117.134,-38.281c3.272,-31.597 -16.36,-41.93 80.162,-167.054c96.521,-125.124 97.176,-125.452 97.176,-125.452c0,0 -142.328,-2.152 -122.697,-53.917c19.631,-51.766 25.848,-56.019 25.848,-56.019l296.59,-445.088Zm-38.684,898.64l485.735,1.237l1.636,296.926l-486.288,1.636l-1.083,-299.799Zm846.463,-7.352l-0.818,307.151l-219.627,0l-2.454,-299.799l328.009,-330.453l291.609,300.198l0.409,330.054l-164.005,0l-2.863,-306.742l-230.261,-0.409Z" style="fill:#f2c846;stroke:#000;stroke-opacity:0;stroke-width:7.5px;"/></svg>